<svg xmlns="http://www.w3.org/2000/svg" viewBox="0 0 587.69 328.68" fill="currentColor">
  <path d="M247.6,110.9h0c0,61.25-49.65,110.9-110.9,110.9h-56.75v106.89H0v-183.51h133.7c18.93,0,34.28-15.35,34.28-34.28h0c0-18.93-15.35-34.28-34.28-34.28H0V0h136.7c61.25,0,110.9,49.65,110.9,110.9Z"/>
  <path d="M575.48,100.09c-8.27-20.54-20.54-38.48-36.41-53.35-15.74-14.74-35.14-26.34-57.62-34.61-22.14-8.07-46.81-12.14-73.22-12.14h-112.63v76.62h112.16c16.27,0,30.94,2.33,43.74,7.07,12.34,4.4,22.61,10.6,30.74,18.47,8.07,7.67,14.34,16.94,18.47,27.41,4.33,10.74,6.53,22.41,6.53,34.81s-2.2,24.07-6.53,34.81c-4.14,10.4-10.34,19.54-18.34,27.07-8.14,7.74-18.54,13.87-30.88,18.34-12.74,4.67-27.47,7-43.74,7h-36.34v-101.23h-80.02v178.31h116.83c26.41,0,51.08-4.07,73.22-12.14,22.54-8.27,41.94-19.94,57.75-34.88,15.8-15.07,28.01-32.94,36.28-53.21,8.14-20.01,12.2-41.54,12.2-64.08s-4.07-44.21-12.2-64.28Z"/>
</svg>
